<?xml version="1.0" encoding="UTF-8" standalone="no"?>
<!-- Generator: Adobe Illustrator 24.2.1, SVG Export Plug-In . SVG Version: 6.00 Build 0)  -->

<svg
   version="1.1"
   id="Layer_1"
   x="0px"
   y="0px"
   viewBox="0 0 270 49.4"
   style="enable-background:new 0 0 270 49.4;"
   xml:space="preserve"
   sodipodi:docname="logo-sandboxaq-black.svg"
   inkscape:version="1.3.2 (1:1.3.2+202311252150+091e20ef0f)"
   xmlns:inkscape="http://www.inkscape.org/namespaces/inkscape"
   xmlns:sodipodi="http://sodipodi.sourceforge.net/DTD/sodipodi-0.dtd"
   xmlns="http://www.w3.org/2000/svg"
   xmlns:svg="http://www.w3.org/2000/svg"><defs
   id="defs9839">
	
	

		
		
		
	</defs><sodipodi:namedview
   id="namedview9837"
   pagecolor="#ffffff"
   bordercolor="#000000"
   borderopacity="0.25"
   inkscape:showpageshadow="2"
   inkscape:pageopacity="0.0"
   inkscape:pagecheckerboard="0"
   inkscape:deskcolor="#d1d1d1"
   showgrid="false"
   inkscape:zoom="1.194332"
   inkscape:cx="135.64068"
   inkscape:cy="25.118645"
   inkscape:window-width="804"
   inkscape:window-height="436"
   inkscape:window-x="190"
   inkscape:window-y="27"
   inkscape:window-maximized="0"
   inkscape:current-layer="Layer_1" />
<style
   type="text/css"
   id="style9786">
	.st0{fill:#EBB028;}
	.st1{fill:#FFFFFF;}
</style>
<text
   transform="matrix(1 0 0 1 393.832 -491.944)"
   class="st1"
   style="font-family:'Satoshi-Medium'; font-size:86.2078px;"
   id="text9788">SANDBOX </text>
<text
   transform="matrix(1 0 0 1 896.332 -491.944)"
   class="st1"
   style="font-family:'Satoshi-Black'; font-size:86.2078px;"
   id="text9790">AQ</text>
<g
   id="g9808">
			<g
   id="g9800">
				<g
   id="g9798">
					<path
   class="st0"
   d="m 8.9,9.7 v 3.9 l 29.6,17.1 v 2.7 c 0,1.2 -0.6,2.3 -1.6,2.9 L 31,39.8 v -4 L 1.4,18.6 V 15.9 C 1.4,14.7 2,13.6 3.1,13 Z"
   id="path9792" />
					<path
   class="st0"
   d="M 18.3,45.1 3.1,36.3 C 2.1,35.7 1.4,34.6 1.4,33.4 V 26 L 28,41.4 21.5,45.1 c -0.9,0.6 -2.2,0.6 -3.2,0 z"
   id="path9794" />
					<path
   class="st0"
   d="m 21.6,4.3 15.2,8.8 c 1,0.6 1.7,1.7 1.7,2.9 v 7.5 L 11.8,8 18.3,4.3 c 1,-0.6 2.3,-0.6 3.3,0 z"
   id="path9796" />
				</g>
			</g>
			<g
   id="g9806">
				<polygon
   class="st0"
   points="248.1,23.2 248.1,30 251.4,33.8 257.3,33.8 "
   id="polygon9802" />
				<path
   class="st0"
   d="m 246.9,31 -0.1,-0.1 h -0.1 c -0.2,0 -0.4,0 -0.6,0 -3.5,0 -5.7,-2.6 -5.7,-6.7 0,-4.1 2.2,-6.7 5.7,-6.7 3.5,0 5.7,2.6 5.7,6.7 0,0.3 0,0.6 0,0.9 l 3.6,4.2 c 0.7,-1.5 1,-3.2 1,-5.1 0,-6.5 -4.2,-11 -10.3,-11 -6.1,0 -10.3,4.5 -10.3,11 0,6.5 4.2,11 10.3,11 1.2,0 2.3,-0.2 3.4,-0.5 l 0.5,-0.2 z"
   id="path9804" />
			</g>
		</g><g
   id="g9824"
   style="fill:#1a1a1a">
			<path
   class="st1"
   d="m 58.7,13.2 c 4.6,0 7.4,2.5 7.4,6.5 h -4.6 c 0,-1.5 -1.1,-2.4 -2.9,-2.4 -1.9,0 -3.1,0.9 -3.1,2.3 0,1.3 0.7,1.9 2.2,2.2 l 3.2,0.7 c 3.8,0.8 5.6,2.6 5.6,5.9 0,4.1 -3.2,6.8 -8.1,6.8 -4.7,0 -7.8,-2.6 -7.8,-6.5 h 4.6 c 0,1.6 1.1,2.4 3.2,2.4 2.1,0 3.4,-0.8 3.4,-2.2 0,-1.2 -0.5,-1.8 -2,-2.1 l -3.2,-0.7 c -3.8,-0.8 -5.7,-2.9 -5.7,-6.4 0,-3.7 3.2,-6.5 7.8,-6.5 z"
   id="path9810"
   style="fill:#1a1a1a" />
			<path
   class="st1"
   d="M 70.4,34.9 78,13.6 h 4.5 l 7.6,21.3 h -4.9 l -1.5,-4.5 h -6.9 l -1.5,4.5 z m 7.7,-8.4 h 4.2 L 80.8,22 c -0.2,-0.7 -0.5,-1.6 -0.6,-2.1 -0.1,0.5 -0.3,1.3 -0.6,2.1 z"
   id="path9812"
   style="fill:#1a1a1a" />
			<path
   class="st1"
   d="M 95.3,34.9 V 13.6 h 4.6 l 9,13.5 V 13.6 h 4.6 v 21.3 h -4.6 l -9,-13.5 v 13.5 z"
   id="path9814"
   style="fill:#1a1a1a" />
			<path
   class="st1"
   d="M 120.7,34.9 V 13.6 h 8 c 6.2,0 10.6,4.4 10.6,10.7 0,6.2 -4.2,10.6 -10.3,10.6 z m 4.7,-17 v 12.6 h 3.2 c 3.7,0 5.8,-2.3 5.8,-6.3 0,-4 -2.3,-6.4 -6.1,-6.4 h -2.9 z"
   id="path9816"
   style="fill:#1a1a1a" />
			<path
   class="st1"
   d="m 145.4,13.6 h 8.8 c 4.3,0 6.9,2.2 6.9,5.9 0,2.3 -1,3.9 -3,4.8 2.1,0.7 3.2,2.3 3.2,4.7 0,3.8 -2.5,5.9 -7.1,5.9 h -8.8 z m 4.7,4.1 v 4.6 h 3.7 c 1.7,0 2.6,-0.8 2.6,-2.4 0,-1.5 -0.9,-2.3 -2.6,-2.3 h -3.7 z m 0,8.5 v 4.6 h 3.9 c 1.7,0 2.6,-0.8 2.6,-2.4 0,-1.4 -0.9,-2.2 -2.6,-2.2 z"
   id="path9818"
   style="fill:#1a1a1a" />
			<path
   class="st1"
   d="m 176.5,35.2 c -6.1,0 -10.4,-4.5 -10.4,-11 0,-6.5 4.3,-11 10.4,-11 6.2,0 10.4,4.5 10.4,11 0,6.5 -4.2,11 -10.4,11 z m 0.1,-17.5 c -3.4,0 -5.5,2.4 -5.5,6.5 0,4.1 2.1,6.5 5.5,6.5 3.4,0 5.5,-2.5 5.5,-6.5 0,-4 -2.1,-6.5 -5.5,-6.5 z"
   id="path9820"
   style="fill:#1a1a1a" />
			<path
   class="st1"
   d="m 190.4,13.6 h 5.5 l 1.8,2.8 c 0.8,1.2 1.5,2.5 2.5,4.3 l 4.3,-7 h 5.4 l -6.7,10.6 6.7,10.6 h -5.5 L 203,32.7 c -1.1,-1.7 -1.8,-3 -2.8,-4.9 l -4.6,7.1 h -5.5 l 7.1,-10.6 z"
   id="path9822"
   style="fill:#1a1a1a" />
		</g><path
   class="st0"
   d="m 229,34.9 h 4.7 L 226,13.6 h -4.3 L 214,34.8 h 4.6 l 1.6,-4.5 h 7.1 z m -5.1,-14.6 c 0,0 0,0 0,0 0,-0.1 0,-0.1 0,0 l 2.2,6.2 h -4.4 z"
   id="path9826" /><g
   id="g9832">
		<path
   class="st1"
   d="m 259.5,11.2 h 3.9 v 1 h -1.3 v 3.1 h -1.3 v -3.1 h -1.3 z m 4.5,0 h 1.7 l 0.6,2.5 0.6,-2.5 h 1.7 v 4.1 h -1 v -3.1 l -0.8,3.1 h -0.9 l -0.8,-3.1 v 3.1 h -1 v -4.1 z"
   id="path9830" />
	</g>
</svg>
