<?xml version="1.0" encoding="UTF-8" standalone="no"?>
<!-- Generator: Adobe Illustrator 24.2.1, SVG Export Plug-In . SVG Version: 6.00 Build 0)  -->

<svg
   version="1.1"
   id="Layer_1"
   x="0px"
   y="0px"
   viewBox="0 0 270 49.4"
   style="enable-background:new 0 0 270 49.4;"
   xml:space="preserve"
   sodipodi:docname="logo-sandboxaq-white.svg"
   inkscape:version="1.2.2 (1:1.2.2+202212051551+b0a8486541)"
   xmlns:inkscape="http://www.inkscape.org/namespaces/inkscape"
   xmlns:sodipodi="http://sodipodi.sourceforge.net/DTD/sodipodi-0.dtd"
   xmlns="http://www.w3.org/2000/svg"
   xmlns:svg="http://www.w3.org/2000/svg"><defs
   id="defs9839" /><sodipodi:namedview
   id="namedview9837"
   pagecolor="#ffffff"
   bordercolor="#000000"
   borderopacity="0.25"
   inkscape:showpageshadow="2"
   inkscape:pageopacity="0.0"
   inkscape:pagecheckerboard="0"
   inkscape:deskcolor="#d1d1d1"
   showgrid="false"
   inkscape:zoom="2.3886639"
   inkscape:cx="135.22204"
   inkscape:cy="25.327967"
   inkscape:window-width="1072"
   inkscape:window-height="688"
   inkscape:window-x="0"
   inkscape:window-y="0"
   inkscape:window-maximized="1"
   inkscape:current-layer="Layer_1" />
<style
   type="text/css"
   id="style9786">
	.st0{fill:#EBB028;}
	.st1{fill:#FFFFFF;}
</style>
<text
   transform="matrix(1 0 0 1 393.832 -491.944)"
   class="st1"
   style="font-family:'Satoshi-Medium'; font-size:86.2078px;"
   id="text9788">SANDBOX </text>
<text
   transform="matrix(1 0 0 1 896.332 -491.944)"
   class="st1"
   style="font-family:'Satoshi-Black'; font-size:86.2078px;"
   id="text9790">AQ</text>
<g
   id="g9834">
	<g
   id="g9828">
		<g
   id="g9808">
			<g
   id="g9800">
				<g
   id="g9798">
					<path
   class="st0"
   d="M8.9,9.7v3.9l29.6,17.1v2.7c0,1.2-0.6,2.3-1.6,2.9L31,39.8v-4L1.4,18.6v-2.7c0-1.2,0.6-2.3,1.7-2.9       L8.9,9.7z"
   id="path9792" />
					<path
   class="st0"
   d="M18.3,45.1L3.1,36.3c-1-0.6-1.7-1.7-1.7-2.9V26L28,41.4l-6.5,3.7C20.6,45.7,19.3,45.7,18.3,45.1z"
   id="path9794" />
					<path
   class="st0"
   d="M21.6,4.3l15.2,8.8c1,0.6,1.7,1.7,1.7,2.9v7.5L11.8,8l6.5-3.7C19.3,3.7,20.6,3.7,21.6,4.3z"
   id="path9796" />
				</g>
			</g>
			<g
   id="g9806">
				<polygon
   class="st0"
   points="248.1,23.2 248.1,30 251.4,33.8 257.3,33.8     "
   id="polygon9802" />
				<path
   class="st0"
   d="M246.9,31l-0.1-0.1l-0.1,0c-0.2,0-0.4,0-0.6,0c-3.5,0-5.7-2.6-5.7-6.7c0-4.1,2.2-6.7,5.7-6.7      s5.7,2.6,5.7,6.7c0,0.3,0,0.6,0,0.9l3.6,4.2c0.7-1.5,1-3.2,1-5.1c0-6.5-4.2-11-10.3-11c-6.1,0-10.3,4.5-10.3,11s4.2,11,10.3,11      c1.2,0,2.3-0.2,3.4-0.5l0.5-0.2L246.9,31z"
   id="path9804" />
			</g>
		</g>
		<g
   id="g9824">
			<path
   class="st1"
   d="M58.7,13.2c4.6,0,7.4,2.5,7.4,6.5h-4.6c0-1.5-1.1-2.4-2.9-2.4c-1.9,0-3.1,0.9-3.1,2.3c0,1.3,0.7,1.9,2.2,2.2     l3.2,0.7c3.8,0.8,5.6,2.6,5.6,5.9c0,4.1-3.2,6.8-8.1,6.8c-4.7,0-7.8-2.6-7.8-6.5h4.6c0,1.6,1.1,2.4,3.2,2.4     c2.1,0,3.4-0.8,3.4-2.2c0-1.2-0.5-1.8-2-2.1l-3.2-0.7c-3.8-0.8-5.7-2.9-5.7-6.4C50.9,16,54.1,13.2,58.7,13.2z"
   id="path9810" />
			<path
   class="st1"
   d="M70.4,34.9L78,13.6h4.5l7.6,21.3h-4.9l-1.5-4.5h-6.9l-1.5,4.5H70.4z M78.1,26.5h4.2L80.8,22     c-0.2-0.7-0.5-1.6-0.6-2.1c-0.1,0.5-0.3,1.3-0.6,2.1L78.1,26.5z"
   id="path9812" />
			<path
   class="st1"
   d="M95.3,34.9V13.6h4.6l9,13.5V13.6h4.6v21.3h-4.6l-9-13.5v13.5H95.3z"
   id="path9814" />
			<path
   class="st1"
   d="M120.7,34.9V13.6h8c6.2,0,10.6,4.4,10.6,10.7c0,6.2-4.2,10.6-10.3,10.6H120.7z M125.4,17.9v12.6h3.2     c3.7,0,5.8-2.3,5.8-6.3c0-4-2.3-6.4-6.1-6.4H125.4z"
   id="path9816" />
			<path
   class="st1"
   d="M145.4,13.6h8.8c4.3,0,6.9,2.2,6.9,5.9c0,2.3-1,3.9-3,4.8c2.1,0.7,3.2,2.3,3.2,4.7c0,3.8-2.5,5.9-7.1,5.9     h-8.8V13.6z M150.1,17.7v4.6h3.7c1.7,0,2.6-0.8,2.6-2.4c0-1.5-0.9-2.3-2.6-2.3H150.1z M150.1,26.2v4.6h3.9c1.7,0,2.6-0.8,2.6-2.4     c0-1.4-0.9-2.2-2.6-2.2H150.1z"
   id="path9818" />
			<path
   class="st1"
   d="M176.5,35.2c-6.1,0-10.4-4.5-10.4-11s4.3-11,10.4-11c6.2,0,10.4,4.5,10.4,11S182.7,35.2,176.5,35.2z      M176.6,17.7c-3.4,0-5.5,2.4-5.5,6.5c0,4.1,2.1,6.5,5.5,6.5c3.4,0,5.5-2.5,5.5-6.5C182.1,20.2,180,17.7,176.6,17.7z"
   id="path9820" />
			<path
   class="st1"
   d="M190.4,13.6h5.5l1.8,2.8c0.8,1.2,1.5,2.5,2.5,4.3l4.3-7h5.4l-6.7,10.6l6.7,10.6h-5.5l-1.4-2.2     c-1.1-1.7-1.8-3-2.8-4.9l-4.6,7.1h-5.5l7.1-10.6L190.4,13.6z"
   id="path9822" />
		</g>
		<path
   class="st0"
   d="M229,34.9h4.7L226,13.6h-4.3l-7.7,21.2h4.6l1.6-4.5h7.1L229,34.9z M223.9,20.3    C223.9,20.3,223.9,20.3,223.9,20.3C223.9,20.2,223.9,20.2,223.9,20.3l2.2,6.2h-4.4L223.9,20.3z"
   id="path9826" />
	</g>
	<g
   id="g9832">
		<path
   class="st1"
   d="M259.5,11.2h3.9v1h-1.3v3.1h-1.3v-3.1h-1.3V11.2L259.5,11.2z M264,11.2h1.7l0.6,2.5l0.6-2.5h1.7v4.1h-1v-3.1    l-0.8,3.1h-0.9l-0.8-3.1v3.1h-1V11.2L264,11.2z"
   id="path9830" />
	</g>
</g>
</svg>
